<svg id="レイヤー_1" data-name="レイヤー 1" xmlns="http://www.w3.org/2000/svg" viewBox="0 0 225 34.15"><defs><style>.cls-1{fill:#3490dc;}.cls-2,.cls-4{font-size:7px;font-family:KozGoPr6N-Regular-90ms-RKSJ-H, Kozuka Gothic Pr6N;}.cls-2,.cls-7{fill:#fff;}.cls-3{fill:#ffed4a;}.cls-5{letter-spacing:0.25em;}.cls-6{fill:#38c172;}.cls-8{fill:none;stroke:#000;stroke-miterlimit:10;}</style></defs><text x="-15.29" y="0.23"/><text x="-15.29" y="0.23"/><rect class="cls-1" y="12.38" width="22.88" height="21.77" rx="7.27"/><text class="cls-2" transform="translate(3.66 22.72)">予約<tspan x="0" y="7">なし</tspan></text><rect class="cls-3" x="25.26" y="12.09" width="61.57" height="21.77" rx="7.27"/><text class="cls-4" transform="translate(31.85 22.97)">予約<tspan x="0" y="7">あり</tspan></text><text class="cls-4" transform="translate(47.95 26.03)">mai<tspan class="cls-5" x="11.68" y="0">l</tspan><tspan x="15.16" y="0">未送信</tspan></text><rect class="cls-6" x="88.42" y="12.23" width="76.94" height="21.77" rx="7.27"/><rect class="cls-7" x="149.7" y="16.11" width="12.93" height="12.93" rx="6.47"/><text class="cls-4" transform="translate(154 25.58)">2</text><text class="cls-4" transform="translate(93.57 23.41)">予約<tspan x="0" y="7">あり</tspan></text><text class="cls-4" transform="translate(110.55 26.91)">mai<tspan class="cls-5" x="11.68" y="0">l</tspan><tspan x="15.16" y="0">送信済</tspan></text><line x1="166.27" y1="22.57" x2="179" y2="22.57"/><line class="cls-8" x1="169.83" y1="22.57" x2="179" y2="22.57"/><path d="M185.52,22.34a7.33,7.33,0,0,0,1.59-4.54,13.65,13.65,0,0,1-5.55,4.54,14.56,14.56,0,0,1,5.55,4.55A7.68,7.68,0,0,0,185.52,22.34Z" transform="translate(-15.29 0.23)"/><text class="cls-4" transform="translate(181.84 25.58)">mai<tspan class="cls-5" x="11.68" y="0">l</tspan><tspan x="15.16" y="0">送信回数</tspan></text></svg>